<svg width="750" height="500" xmlns="http://www.w3.org/2000/svg">
 <!-- Created with Method Draw - http://github.com/duopixel/Method-Draw/ -->

 <g>
  <title>background</title>
  <rect x="-1" y="-1" width="752" height="502" id="canvas_background" fill="#27313b"/>
  <g id="canvasGrid" display="none">
   <rect id="svg_2" width="100%" height="100%" x="0" y="0" stroke-width="0" fill="url(#gridpattern)"/>
  </g>
 </g>
 <g>
  <title>Layer 1</title>
  <ellipse fill="none" stroke-width="2" cx="296.508167" cy="394.193179" id="svg_8" rx="246.499995" ry="246.499995" stroke="#25498c"/>
  <ellipse fill="none" stroke-width="2" cx="296.320663" cy="394.943189" id="svg_12" rx="402.499994" ry="402.499994" stroke="#25498c"/>
  <ellipse fill="none" cx="296.320686" cy="395.443166" id="svg_24" rx="440.499986" ry="440.499986" stroke-dasharray="5,5" stroke="#25498c" fill-opacity="0.03"/>
  <ellipse fill="none" stroke-width="2" cx="296.570662" cy="395.193177" id="svg_9" rx="307.499991" ry="307.499991" stroke="#25498c"/>
  <ellipse fill="none" stroke-width="2" cx="296.320672" cy="394.943185" id="svg_10" rx="344.500001" ry="344.500001" stroke="#25498c"/>
  <ellipse fill="none" stroke-width="2" cx="296.570681" cy="394.595762" id="svg_11" rx="385.50001" ry="385.50001" stroke="#25498c"/>
  <ellipse fill="none" stroke-width="2" cx="296.320675" cy="394.943169" id="svg_3" rx="112.000003" ry="112.000003" stroke="#25498c"/>
  <ellipse fill="none" stroke-width="3" cx="296.320674" cy="394.943173" id="svg_7" rx="198.000002" ry="198.000002" stroke="#79a5cf"/>
  <ellipse fill="none" stroke-width="2" cx="294.320666" cy="394.943165" id="svg_5" rx="152.500009" ry="152.500009" stroke="#25498c" fill-opacity="0.03"/>
  <ellipse fill="#feee74" stroke-width="27" cx="296.320673" cy="394.943167" id="svg_1" rx="57.5" ry="57.5" stroke="#e1ce29"/>
  <ellipse fill="#d6d5c1" stroke-width="4" cx="396.320672" cy="346.943174" id="svg_4" rx="16.749999" ry="16.749999"/>
  <ellipse fill="#962a2a" stroke-width="4" cx="374.820672" cy="262.943174" id="svg_6" rx="16.749999" ry="16.749999" stroke="#a34141"/>
  <ellipse fill="#b35b37" stroke-width="4" cx="469.820672" cy="213.943174" id="svg_16" rx="16.749999" ry="16.749999"/>
  <g id="svg_19">
   <ellipse fill="none" cx="474.44567" cy="312.074467" id="svg_14" rx="42.374997" ry="28.381291" stroke="#328ea3"/>
   <ellipse fill="#007f00" stroke-width="3" cx="474.383173" cy="312.505675" id="svg_13" rx="21.0625" ry="21.0625" stroke-opacity="0.25" stroke="#a6ecfc"/>
   <g id="svg_68">
    <ellipse fill="#cccccc" stroke-width="4" cx="510.195673" cy="295.318175" id="svg_15" rx="7.625" ry="7.625"/>
    <ellipse fill="#b5adad" stroke-width="2" cx="512.164423" cy="300.974425" id="svg_66" rx="1.53125" ry="0.96875" transform="rotate(-13.668148040771484 512.1643066406252,300.97442626953125) "/>
    <ellipse fill="#b5adad" stroke-width="2" cx="505.664423" cy="294.599425" id="svg_69" rx="2.282551" ry="2.073604" transform="rotate(-45 505.6644592285156,294.5994262695313) "/>
    <ellipse fill="#b5adad" stroke-width="2" cx="507.590922" cy="292.150927" id="svg_70" rx="1.487055" ry="1.350928" transform="rotate(-31.004899978637695 507.59097290039074,292.15093994140625) "/>
   </g>
  </g>
  <g id="svg_25" stroke="null" transform="rotate(-13.50196647644043 498.44570922851557,117.39781951904286) ">
   <ellipse fill="none" stroke-width="4" cx="498.445672" cy="117.516802" id="svg_20" rx="25.374999" ry="8.876724" stroke="#998e60"/>
   <ellipse fill="#e5ae30" stroke-width="4" cx="498.670229" cy="117.397821" id="svg_18" rx="15.045353" ry="15.045353" stroke="null"/>
   <path fill="none" stroke-width="4" fill-opacity="null" d="m474.137323,120.148655c5.82602,5.092 15.1151,6.05091 26.82443,5.82636c11.70932,-0.22456 16.52764,-2.10969 19.99581,-4.4294" id="svg_23" stroke="#998e60"/>
  </g>
  <g id="svg_29" stroke="null">
   <ellipse fill="none" stroke-width="2" cx="593.320672" cy="151.108509" id="svg_26" rx="14.499999" ry="5" stroke="#354e58"/>
   <ellipse fill="#3ab8e0" stroke-width="3" cx="593.448991" cy="150.79052" id="svg_27" rx="8.597345" ry="8.597345" stroke="null"/>
   <path fill="none" stroke-width="2" fill-opacity="null" d="m579.430183,152.612425c3.32916,2.90971 8.6372,3.45766 15.32825,3.32935c6.69104,-0.12832 9.44437,-1.20554 11.42618,-2.53109" id="svg_28" stroke="#354e58"/>
  </g>
  <ellipse fill="#8bbff3" stroke-width="4" cx="560.445673" cy="90.318175" id="svg_30" rx="11.875" ry="11.875" stroke="null"/>
  <ellipse fill="#eba735" stroke-width="4" cx="608.320673" cy="83.943175" id="svg_31" rx="7.75" ry="7.75" stroke="null"/>
  <path fill="#3dcaed" stroke-width="2" d="m479.785083,324.851945c-0.13476,0.10848 -0.31217,0.22035 -0.17911,0.35087c0.13306,0.13222 -0.15354,0.22206 -0.15354,0.28816s0.17742,0.41698 0.08872,0.56953c-0.08872,0.15594 -0.15524,0.378 -0.22177,0.51021c-0.06653,0.13051 -0.22347,0.26273 -0.17741,0.46104c0.04265,0.19663 -0.17741,0.13052 -0.17741,0.32885c0,0.19662 0.19788,0.11017 0.15352,0.35256c-0.04264,0.24408 -0.15352,0.31019 -0.15352,0.48308c0,0.17629 0.10917,0.41868 0.10917,0.48479s-0.10917,0.28815 -0.26441,0.46104c-0.15694,0.17629 -0.2644,0.28817 -0.24564,0.39495c0.02388,0.11018 0.1774,0.24408 0.15523,0.31188c-0.02218,0.06272 -0.22006,0.28477 -0.19788,0.43902c0.02389,0.15256 0.22005,0.08984 0.26441,0.19663c0.04435,0.11017 -0.26441,0.20001 -0.13306,0.31019c0.13306,0.10848 0.31218,0.08644 0.26611,0.35256c-0.03241,0.18985 0.10919,0.27629 0.21495,0.33562c-1.51994,0.3746 -3.10128,0.59666 -4.73721,0.59666c-10.84936,0 -19.67384,-8.76842 -19.67384,-19.54885c0,-3.51381 0.95017,-6.80557 2.58951,-9.65663c0.13477,-0.07119 0.23371,-0.11695 0.29171,-0.10509c0.11088,0.02204 0.13476,0.17629 0.31218,0.22036c0.17741,0.04407 0.33264,-0.13221 0.44352,-0.19833c0.10918,-0.0661 0.19788,-0.33052 0.08701,-0.30849c-0.11089,0.02204 -0.39918,0 -0.39918,0s0.31217,-0.17628 0.31217,-0.28646s0.04265,-0.28646 0.22006,-0.35257c0.17571,-0.0678 0.17571,-0.02373 0.06482,0.2407c-0.11088,0.26443 0.22348,0.15425 0.35482,0.04407s0.22177,-0.02203 0.464,-0.17629c0.24394,-0.15424 0.24394,-0.24239 0.377,-0.24239c0.13306,0 0.377,0.24239 0.51006,0.15425c0.13135,-0.08814 0.51005,0.11018 0.73181,0.11018c0.22006,0 0.92971,0.28647 1.06447,0.28647c0.13306,0 0.53224,0.15255 0.55441,0.43901c0.02218,0.28646 0.15353,0.26442 0.28659,0.26442s0.44352,0.11019 0.44352,0.22036c0,0.11018 -0.0887,0.55088 0.13306,0.66106c0.22006,0.10848 0.42135,0.28647 0.51006,0.2424c0.0887,-0.04407 0,-0.39495 -0.10918,-0.44072c-0.11088,-0.04407 -0.04605,-0.19831 -0.0887,-0.28646c-0.04436,-0.08644 0.13305,-0.08644 0.19959,0.06611c0.06652,0.15425 0.24394,0.4407 0.35481,0.4407c0.10918,0 0.35483,0.26444 0.2866,0.41868c-0.06654,0.15425 0.06652,0.3746 0.26611,0.3746c0.19788,0 0.44352,0.3085 0.53223,0.33053c0.08871,0.02204 0.19959,0.13222 0.19959,0.19833c0,0.0678 0.11088,0.4407 0.11088,0.59495c0,0.15255 -0.06823,0.76955 -0.09041,1.01194s0.17741,0.66106 0.39918,0.88142c0.22005,0.22035 0.41964,0.63903 0.55269,0.72717c0.13477,0.08814 0.22178,0.33053 0.42136,0.30849c0.19959,-0.02203 0.33264,0.13221 0.51005,0.44072c0.17741,0.30849 0.35483,0.81361 0.48789,0.85768c0.13305,0.04407 0.35481,0.19832 0.24223,0.3085c-0.10918,0.10848 -0.28659,0.35256 -0.08701,0.35256c0.19959,0 0.26613,-0.11017 0.42135,0.08984c0.15354,0.19662 0.35483,0.3068 0.33095,0.44071c-0.02218,0.13052 0.17741,0.17459 0.26611,0.19662c0.08871,0.02204 0.2883,0.41867 0.48789,0.24239c0.19958,-0.17628 -0.26441,-0.43901 -0.39918,-0.55258c-0.13306,-0.10848 0,-0.35087 -0.31047,-0.59326c-0.31046,-0.24239 -0.26611,-0.41867 -0.48788,-0.59496c-0.22176,-0.17628 -0.39747,-0.33053 -0.17741,-0.48478c0.22176,-0.15424 0.24394,0.15425 0.33265,0.35257c0.0887,0.19662 0.5527,0.59496 0.75228,0.76955c0.19959,0.17628 0.55612,0.79327 0.6653,0.79327s0.42135,0.35257 0.42135,0.35257s0.1757,0.28476 0.10917,0.3729c-0.06652,0.08814 0.09042,0.41868 0.24564,0.50682c0.15354,0.08814 0.77618,0.37291 0.86489,0.41867c0.0887,0.04577 0.26441,0.37461 0.51005,0.37461c0.24224,0 0.42136,0.02373 0.48788,0.08984c0.06653,0.06441 0.26441,0.32883 0.39918,0.17628c0.13306,-0.15594 0.15352,-0.22205 0.35482,-0.22205c0.19959,0 0.28659,0.15425 0.39747,0.26442c0.11088,0.11018 0.42135,0.39833 0.57659,0.3763c0.15522,-0.02204 0.35481,0.17629 0.4657,0.10848s0.28828,0.04238 0.37529,0.08815c0.09212,0.04407 0.39918,0.20001 0.3787,0.46105c-0.02217,0.26611 0.17571,0.33052 0.31047,0.39663c0.13306,0.06611 0.31047,0.22036 0.42306,0.33054c0.10917,0.10679 0.35141,0.13051 0.41965,0.19662c0.06652,0.0661 0.11087,0.19832 0.31046,0.08814c0.19788,-0.10848 0.15694,-0.3068 0.15694,-0.3068s0.22006,-0.04407 0.33095,0.04407c0.10917,0.08475 0.17741,0.37291 0.24564,0.41698c0.06482,0.04407 0.19618,0.3746 0.10747,0.6136c-0.087,0.24578 -0.06483,0.48478 -0.15524,0.48478c-0.0887,0 -0.19787,0.28816 -0.33264,0.35427c-0.12965,0.0661 -0.48618,0.3746 -0.46399,0.48477c0.02217,0.10679 0.22346,0.43732 0.1774,0.59327c-0.04265,0.15425 -0.33094,0.33053 -0.26271,0.57292c0.06483,0.24408 0.53224,0.31019 0.551,0.52885c0.02388,0.22205 0.35653,0.70683 0.40088,0.92549c0.04265,0.22036 0.41965,0.46105 0.41965,0.76785c0,0.31189 0.53223,0.50851 0.64311,0.52885c0.10748,0.02204 0.31047,0.22205 0.46401,0.28816s0.28828,0.19662 0.39746,0.37461s0.09041,0.44239 0.09041,0.50681c0,0.0661 -0.06652,0.74582 -0.13306,1.14245c-0.06823,0.39834 0.08529,0.70683 -0.04605,0.8187l-0.00001,0l0,0.00001zm-14.31569,-20.47773c0.06653,0.02204 0.19959,0.15425 0.26612,0.15425c0.06823,0 0.39917,0.26443 0.48788,0.35257c0.09041,0.08814 0.09041,0.33053 -0.02218,0.35257s-0.17741,-0.24239 -0.19959,-0.35257c-0.02217,-0.11018 -0.24393,-0.11018 -0.35482,-0.17629c-0.11088,-0.0661 -0.35823,-0.39155 -0.17741,-0.33053l0,0zm28.56315,8.85148c-0.24565,0.3085 -0.22177,0.46105 -0.33265,0.48478c-0.10917,0.02204 0.11089,0.11018 0.15353,0.32884c0.03752,0.18984 -0.11088,0.37969 0.10747,0.55428c-0.82906,7.82936 -6.32879,14.29593 -13.67428,16.58931c-0.01195,-0.01865 -0.03242,-0.04238 -0.03583,-0.05763c-0.04605,-0.13221 -0.04605,-0.39495 0.10918,-0.48309c0.15523,-0.08983 0.53223,-0.39494 0.61923,-0.46104c0.08871,-0.0678 0.22177,-0.37461 0.15523,-0.41868c-0.06482,-0.04407 -0.39575,0 -0.44352,-0.06611c-0.04435,-0.0661 -0.04435,-0.15594 0.17741,-0.30849c0.22176,-0.15425 0.33265,-0.37629 0.42135,-0.4407c0.0887,-0.06611 0.26441,-0.19833 0.33265,-0.35427c0.06482,-0.15256 -0.06995,-0.06611 -0.2013,-0.06611s-0.19959,-0.24069 -0.19959,-0.35087s0.33265,0.04407 0.5783,0.08814c0.24394,0.04069 0.13135,-0.11017 0.10917,-0.24069c-0.02217,-0.13221 0.04435,-0.35427 0.17912,-0.28816c0.12964,0.06611 0.81711,-0.02204 0.90581,-0.04407c0.08872,-0.02204 0.33095,-0.41698 0.41965,-0.52885c0.09041,-0.11017 0.10918,-0.21865 0,-0.28476c-0.11088,-0.0678 -0.24394,-0.31189 -0.28658,-0.37461c-0.04435,-0.06949 -0.06653,-0.46443 -0.02218,-0.57631c0.04265,-0.10678 0,0.63903 0.30876,0.72886c0.31218,0.08814 0.48788,0.13221 0.77617,-0.13221c0.28829,-0.26273 0.50835,-0.4407 0.53224,-0.61529c0.02217,-0.17629 0.0887,-0.35427 0.19958,-0.41699c0.11088,-0.0661 0.17742,0.17459 0.31047,-0.11017c0.13306,-0.28816 0.26612,-0.26612 0.39917,-0.50681c0.13136,-0.24409 -0.22176,-0.55089 0.04094,-0.72887c0.26783,-0.17459 0.73353,-0.39494 0.73353,-0.39494s0.13306,-0.06611 0.39917,-0.13222c0.26441,-0.06441 0.55271,-0.02373 0.64141,-0.15255c0.08871,-0.13391 0.17741,-0.41867 0.31048,-0.57292c0.13476,-0.15594 0.28828,-0.39664 0.22176,-0.50682c-0.06654,-0.11018 0.17741,-0.59665 0.15523,-0.72717c-0.02218,-0.13221 -0.22177,-0.4424 0.11088,-0.70513s0.68576,-0.66276 0.70965,-0.76955c0.02047,-0.11017 0.28829,-0.57292 0.2627,-0.79497c-0.02047,-0.21866 -0.2627,-0.48308 -0.41794,-0.55088c-0.15694,-0.06272 -0.48788,-0.08475 -0.62094,-0.26105s-0.51006,-0.35256 -0.64312,-0.30849c-0.13134,0.04407 -0.35481,0.08645 -0.53222,-0.02542c-0.17741,-0.10679 -0.464,-0.24239 -0.57489,-0.32884c-0.11259,-0.08644 -0.39917,-0.15255 -0.53223,-0.15255s-0.11088,-0.08984 -0.31046,0.17459c-0.19959,0.26612 0,0.35426 -0.35483,0.30849c-0.35653,-0.04068 0.04265,-0.06441 0.24564,-0.32883c0.19618,-0.26273 -0.02388,-0.41868 -0.24564,-0.35088c-0.22176,0.06611 -0.06652,0.19832 -0.42135,0.26443c-0.35312,0.06441 -0.35312,-0.15594 -0.13135,-0.19832c0.22176,-0.04407 0.61923,-0.2424 0.61923,-0.32884c0,-0.08984 -0.04435,-0.33222 -0.22176,-0.33222s-0.13306,-0.21866 -0.39747,-0.50343c-0.26612,-0.28816 -0.59877,-0.46444 -0.86658,-0.42206c-0.26271,0.04407 -0.464,0.11017 -0.59706,-0.12883c-0.13306,-0.24408 -0.28829,-0.28815 -0.3787,-0.41867c-0.087,-0.13222 -0.31047,0 -0.377,-0.06611s-0.06653,-0.06611 -0.06653,-0.06611s-0.28829,0.06611 -0.13135,-0.13221c0.15353,-0.19831 0.22005,-0.57291 0.15353,-0.55088c-0.06482,0.02204 -0.17741,0.33222 -0.28659,0.31019c-0.10918,-0.02204 -0.02388,-0.0678 -0.24565,-0.19832c-0.22176,-0.13221 -0.57488,-0.02203 -0.57488,0.08814c0,0.11018 -0.11087,0.19832 -0.11087,0.19832s-0.06654,-0.06441 -0.13307,-0.19832c-0.06652,-0.13221 -0.37699,-0.15424 -0.53223,-0.02203c-0.15352,0.13221 -0.24223,-0.33223 -0.35311,-0.33223s-0.33094,0.11018 -0.44353,0.31189c-0.10918,0.19662 -0.06483,0.48308 -0.15694,0.46104c-0.08529,-0.02203 -0.10747,-0.39494 -0.08529,-0.52884c0.02046,-0.13391 0.26441,-0.35258 0.08529,-0.39665c-0.1757,-0.04407 -0.44183,0.22036 -0.551,0.2424c-0.11088,0.02203 -0.33265,0.17628 -0.4657,0.35426c-0.13135,0.17459 -0.19788,0.28476 -0.33265,0.35087c-0.13135,0.0661 -0.32923,0 -0.28488,-0.06611c0.04265,-0.0661 -0.3787,-0.3068 -0.44523,-0.22035c-0.06823,0.08814 -0.26441,0.15425 -0.464,0.24408c-0.19959,0.08814 -0.3787,-0.11018 -0.42135,-0.19832s-0.13477,-0.10848 -0.15524,-0.39663c-0.02217,-0.28477 0.04607,-0.59496 0.11089,-0.76955c0.06482,-0.17628 -0.33265,-0.52885 -0.48788,-0.50851c-0.15523,0.02543 -0.31047,0.17798 -0.464,0.15425c-0.15694,-0.02034 -0.0887,-0.06441 -0.33265,-0.06441c-0.24394,0 -0.04435,-0.04238 0,-0.2424c0.04265,-0.19662 -0.0887,-0.46274 0.15694,-0.63902c0.24224,-0.17628 0.15524,-0.59496 0,-0.6153c-0.15694,-0.02373 -0.44523,0.0661 -0.64311,0.04407c-0.19788,-0.02373 -0.35482,0.15425 -0.28829,0.35087c0.06653,0.19832 -0.11088,0.33054 -0.17741,0.3102c-0.06653,-0.02204 -0.15353,-0.13222 -0.39917,0.04407c-0.24224,0.17458 -0.33095,0.10848 -0.57488,-0.08815c-0.24394,-0.20001 -0.51007,-0.39664 -0.55442,-0.70513c-0.04435,-0.3085 -0.06823,-0.617 0.02218,-0.79328c0.08701,-0.17628 0.08701,-0.48308 -0.04435,-0.52885c-0.13306,-0.04237 0.15353,-0.26273 0.30877,-0.3068c0.15694,-0.04407 0.39917,-0.24239 0.44352,-0.33053c0.04435,-0.08814 0.26612,-0.0678 0.50835,-0.0678c0.24394,0 0.2883,0 0.53223,0.13221c0.24394,0.13221 0.28829,-0.06611 0.28829,-0.13221c0,-0.06611 0.08871,-0.19832 0.35483,-0.17629c0.26612,0.02204 0.6414,-0.08814 0.70964,-0.02203s0.19789,0.33053 0.33094,0.24239c0.13476,-0.08645 0.17741,-0.24239 0.22347,0.02373c0.04265,0.26273 0.15353,0.66106 0.35482,0.72717c0.19788,0.0661 0.08871,0.32883 0.28659,0.35087c0.19617,0.02203 0.28999,-0.41698 0.22347,-0.57122c-0.06824,-0.15256 -0.20129,-0.61531 -0.31218,-0.72548c-0.10917,-0.11018 -0.10917,-0.39664 0.10918,-0.48478c0.22177,-0.08815 0.75399,-0.52885 0.90752,-0.65937c0.15694,-0.13391 0.57659,-0.24408 0.44523,-0.42037c-0.13305,-0.17628 -0.1774,-0.28477 -0.1774,-0.41867s0.13305,-0.08814 0.19959,0s0.33093,-0.13221 0.2644,-0.24239c-0.06482,-0.10848 -0.04435,-0.26273 0.11088,-0.24239c0.15524,0.02204 0.19788,-0.11018 0.13306,-0.19832c-0.06652,-0.08815 0.15524,-0.19832 0.31047,-0.15425c0.15694,0.04407 0.55441,-0.02204 0.62094,-0.11018c0.06482,-0.08814 -0.13306,-0.17628 -0.13306,-0.35256c0,-0.17628 0.26441,-0.33054 0.42135,-0.35258c0.15524,-0.02203 0.35312,0 0.377,-0.0661c0.02047,-0.06611 0.24394,-0.24239 0.26441,-0.08814c0.02388,0.15424 0,0.41868 0.17741,0.41868c0.17741,0 0.39576,-0.19833 0.46399,-0.21866c0.06483,-0.02204 0.48789,-0.11019 0.57659,-0.13222c0.08871,-0.02204 0.61923,-0.06611 0.55441,-0.22035c-0.06653,-0.15256 -0.13306,-0.3068 -0.20129,-0.37291c-0.06654,-0.0661 -0.13136,0.02204 -0.22176,0.13221c-0.08701,0.11018 -0.24395,0.11018 -0.2866,0.02204c-0.04435,-0.08645 0.02047,-0.35087 -0.13305,-0.26443c-0.15694,0.08815 -0.17741,0.17629 -0.26782,0.13222c-0.08871,-0.04407 -0.17571,-0.19832 -0.17571,-0.19832s0.22006,-0.10848 0.06483,-0.3085c-0.15353,-0.19832 -0.377,-0.15425 -0.59706,-0.04237c-0.22176,0.10848 -0.20129,0.08645 -0.46571,0.15255s-0.39917,0.13221 -0.39917,0.13221s0.35653,-0.21865 0.51006,-0.35257c0.15524,-0.13221 0.35653,-0.19832 0.48787,-0.33053c0.13307,-0.13221 0.48618,0.06611 0.48618,0.06611s0.17912,-0.17628 0.17912,-0.06611s-0.04606,0.39664 0.087,0.39664c0.13476,0 0.51006,-0.17629 0.35823,-0.22205c-0.15864,-0.04407 0.22006,0 0.37359,-0.11018c0.15694,-0.11017 0.33094,-0.11017 0.42135,-0.15255c0.0887,-0.04407 0.15694,-0.24239 0.31046,-0.24239c0.15694,0 0.22178,0.19832 0,0.33053s-0.24393,0.46275 -0.35481,0.55089c-0.10918,0.08814 -0.04436,0.19832 0.13305,0.17628c0.17741,-0.02203 0.33094,0.02204 0.48789,-0.02203s0.24393,0.04407 0.28658,0.11017c0.04435,0.06611 0.17741,-0.0661 0.17741,-0.0661s0.28829,-0.06611 0.377,0.04407c0.09041,0.10848 0.15694,-0.06611 0.09041,-0.17628c-0.06653,-0.10848 -0.15694,-0.21866 -0.22177,-0.35258c-0.06652,-0.13221 -0.15522,-0.17628 -0.33093,-0.13221c-0.17741,0.04407 -0.22176,-0.04407 -0.33265,-0.10848c-0.11088,-0.0678 -0.20129,0.08814 -0.11088,-0.0678c0.09041,-0.15255 0.13306,-0.19832 0.19959,-0.33053c0.06653,-0.13221 0.35653,-0.37461 0.06653,-0.43902c-0.28829,-0.0678 -0.37871,-0.11017 -0.42135,-0.24239c-0.04435,-0.13221 -0.377,-0.37459 -0.464,-0.37459c-0.09041,0 -0.39747,0 -0.42135,-0.11018c-0.02218,-0.11019 -0.24394,-0.35258 -0.35482,-0.46275c-0.10918,-0.11018 -0.53224,-0.59496 -0.59876,-0.63903c-0.06654,-0.04407 -0.15524,-0.02204 -0.35483,0.2424c-0.19788,0.26611 -0.37529,0.31018 -0.53223,0.24408c-0.15524,-0.06611 -0.17741,-0.04407 -0.32923,-0.22036c-0.15865,-0.17629 0.15352,-0.19832 0.087,-0.3085c-0.06823,-0.10848 -0.42135,-0.15425 -0.64312,-0.17628c-0.22176,-0.02204 -0.377,-0.26442 -0.70964,-0.28646c-0.33094,-0.02203 -0.73011,0.04407 -0.841,0.04407c-0.10917,0 -0.10917,0.15425 -0.15352,0.39664c-0.04607,0.24239 0.15352,0.3085 -0.04607,0.35257c-0.19788,0.04407 -0.28828,0.06611 -0.0887,0.15425c0.19959,0.08814 0.4657,0.4407 0.4657,0.4407s0,0.19832 -0.15694,0.3085c-0.15352,0.11018 -0.31046,0.22036 -0.39747,0.08984c-0.0904,-0.13392 -0.33264,-0.11019 -0.26441,0.02203c0.06483,0.13222 0.19789,0.19832 0.19789,0.33053c0,0.13052 0.19958,0.46105 0.06652,0.57123c-0.13305,0.11018 -0.28658,0.02373 -0.39747,0.04407s-0.22346,-0.17629 -0.13305,-0.22036c0.087,-0.04407 -0.02389,-0.3746 -0.02389,-0.3746s-0.26441,0.3746 -0.24394,0.17628c0.02388,-0.19831 -0.10917,-0.22035 -0.10917,-0.3746c0,-0.15424 -0.13476,-0.22035 -0.33094,-0.17628c-0.20129,0.04407 -0.44353,-0.06781 -0.82223,-0.13391c-0.37529,-0.06611 -0.53053,-0.10848 -0.84099,-0.26443c-0.31048,-0.15424 -0.42135,-0.04407 -0.57659,-0.02203c-0.15524,0.02203 -0.08871,-0.30849 -0.28829,-0.35087c-0.19788,-0.04577 -0.30877,0.04238 -0.35312,-0.24409c-0.04435,-0.28477 0.06653,-0.35257 0.55271,-0.66106c0.48787,-0.3085 0.42135,-0.44071 0.79835,-0.48478c0.37528,-0.04407 0.5544,0.04407 0.5544,-0.06611s0.08871,-0.55088 0.08871,-0.33053s0.44693,0.23392 0.24564,0.38817c-0.19788,0.15424 -0.0887,0.17628 0.06824,0.17628c0.15524,0 0.44182,-0.15425 0.44182,-0.15425s0.35483,-0.15425 0.44353,-0.02203c0.09041,0.13221 0.09041,0.26442 0.24565,0.26442s0.48617,-0.17628 0.19787,-0.33053c-0.28658,-0.15425 -0.464,-0.13221 -0.64141,-0.30849s-0.13305,-0.11019 -0.33264,-0.06611c-0.19788,0.04407 -0.19788,-0.06611 -0.26612,-0.06611s-0.17741,0.04407 -0.22176,-0.04407c-0.04265,-0.08815 0.02388,-0.11018 0.24736,-0.11018c0.22005,0 0.48617,0.0661 0.48617,0.0661s0.2644,-0.08814 0.33093,-0.11017c0.06654,-0.02204 0.42136,-0.06611 0.35482,-0.26273c-0.06823,-0.19832 -0.28828,-0.19832 -0.35482,-0.26442s0.13306,-0.15256 0.24395,-0.19832c0.11087,-0.04407 0.42135,0 0.42135,0s0.19959,0.02203 0.19959,-0.06611s-0.04777,-0.19832 0.08699,-0.13222s0,0.26444 0.19959,0.22037c0.19788,-0.04407 0.24394,0 0.35312,0.0661c0.11087,0.06611 -0.02218,0.33053 -0.13136,0.3746c-0.11087,0.04238 -0.28829,0.13052 -0.04435,0.15255c0.24564,0.02373 0.41965,0.02373 0.41965,0.02373s0.15694,-0.15424 0.22346,-0.28645c0.06483,-0.13222 0.17742,-0.04407 0.26441,0c0.08871,0.04237 0.42135,0.11017 0.11089,0.19831c-0.31218,0.08814 -0.377,0.19832 -0.44353,0.30851c-0.06483,0.11017 -0.09041,0.17628 -0.377,0.11017c-0.29,-0.0661 -0.44353,-0.04407 -0.51006,0.06611c-0.06652,0.10848 -0.02217,0.46274 0.09042,0.41867c0.10747,-0.04407 0.22006,-0.04407 0.35311,-0.08814c0.13306,-0.04407 0.6653,0.04407 0.79664,0.02203c0.13306,-0.02203 0.35653,0.22035 0.42307,0.17628c0.06652,-0.04407 0.19958,0.08814 0.33093,0.17629c0.13306,0.08815 0.08871,-0.19832 0.33094,-0.02204c0.24565,0.17629 0.11088,0.17629 0.24565,0.17629c0.12964,0 0.41964,0.02204 0.41964,0.02204s0.02388,-0.21866 0.24564,-0.17629c0.22177,0.04407 0.41794,0.28646 0.39577,0.10849c-0.02047,-0.1746 0.02217,-0.30681 -0.15353,-0.43902c-0.17741,-0.13222 -0.464,-0.22036 -0.51005,-0.28646c-0.04435,-0.06611 -0.08872,-0.15425 -0.02218,-0.19832c0.06653,-0.04238 0.377,0.02204 0.5527,0.13391c0.17741,0.11017 0.33265,0.22035 0.46571,0.13221c0.13134,-0.08814 0.28999,-0.13221 0.35481,-0.19832c0.06483,-0.0678 0.22177,-0.26443 0.22177,-0.26443s-0.667,-0.08645 -0.75229,-0.19832c-0.09041,-0.11018 -0.40088,-0.26442 -0.48959,-0.26442s-0.33093,0.15424 -0.41964,-0.06611s-0.08871,-0.48478 -0.17912,-0.50682c-0.08529,-0.02203 -1.01841,-0.15424 -1.14975,-0.22035c-0.13307,-0.06611 -0.6653,-0.22035 -0.86489,-0.33053s-0.48787,-0.26442 -0.66358,-0.26442c-0.17741,0 -0.90923,0.08814 -1.04229,0.0661c-0.13306,-0.02203 -0.53223,0.04407 -0.68746,0.06611c-0.15524,0.02203 0.19959,0.30849 -0.13136,0.3746c-0.33264,0.0661 -0.28828,0.11018 -0.22176,-0.22035c0.06482,-0.33053 -0.22347,-0.41868 -0.51006,-0.28646c-0.28829,0.13221 -0.75399,0.22035 -0.64311,0.3746c0.11088,0.15424 -0.02047,0.26611 0.19958,0.41867c0.22177,0.15425 0.31218,0.19832 0.59706,0.17629c0.29001,-0.02204 0.57829,0.04237 0.57829,0.04237s0,0.26612 -0.10917,0.3085c-0.11089,0.04407 -0.2883,0.04407 -0.33435,0.17628c-0.04265,0.13221 -0.26441,0.19832 -0.26441,0.13221s0.11088,-0.28646 -0.04436,-0.39663c-0.15352,-0.11018 -0.19959,-0.13222 -0.377,-0.02204c-0.1774,0.11018 -0.19787,0.15425 -0.28829,-0.02203c-0.0887,-0.17629 -0.35482,-0.33054 -0.35482,-0.33054s-0.17741,-0.21866 -0.31047,-0.32884c-0.13135,-0.11017 -0.37529,-0.08814 -0.39917,0.02204c-0.02217,0.10848 0.04435,0.21866 0.13305,0.41868c0.08871,0.19831 0.17741,0.57122 0.02219,0.59495c-0.15524,0.02203 -0.17741,0.04407 -0.33265,0.08814c-0.15524,0.04407 -0.22176,-0.06611 -0.22176,-0.24239s-0.06824,-0.33053 -0.02218,-0.39663c0.04435,-0.06611 -0.17741,0.04576 -0.39917,0c-0.22178,-0.04238 -0.39747,0.08814 -0.17741,0.15594c0.22176,0.0661 0.26781,0.32883 0.06652,0.39494c-0.19958,0.06611 -0.95358,0 -1.19752,0s-0.59706,0.06611 -0.66529,-0.06611c-0.06653,-0.13221 0.20129,-0.21865 0.35482,-0.21865c0.15523,0 0.61923,0.02034 0.79664,-0.22036c0.17741,-0.24239 -0.22176,-0.28646 -0.39747,-0.28646c-0.1774,0 -0.31217,-0.06611 -0.51005,-0.26273c-0.20129,-0.19832 0.13306,-0.33053 0.0887,-0.41867c-0.04435,-0.08814 -0.26611,-0.02373 -0.46399,-0.02373c-0.19959,0 -0.51005,-0.15255 -0.51005,0.02373c0,0.17628 0.24393,0.6814 0.0887,0.57122c-0.15524,-0.10848 -0.13307,-0.26442 -0.24394,-0.39663c-0.11089,-0.13222 -0.28659,-0.11018 -0.51006,-0.08815c-0.22006,0.02204 -0.59706,0.08815 -0.70794,0.06611c-0.10918,-0.02204 -0.02217,-0.02204 -0.26612,-0.13221c-0.24223,-0.11018 -0.35481,-0.08814 -0.53222,-0.19832c-0.17571,-0.11357 -0.02048,-0.15595 -0.33095,-0.17799c-0.30876,-0.02203 -0.28658,0.15256 -0.59706,0.11018c-0.31046,-0.04407 -0.39917,0.02204 -0.70963,0c-0.31048,-0.02203 -0.464,-0.04407 -0.51006,0.11019c-0.04265,0.15424 -0.13305,0.41867 -0.26612,0.41867c-0.13135,0 -0.28829,0.15424 0.13307,0.17628c0.42134,0.02203 0.17911,0.21866 0.5544,0.19832c0.377,-0.02204 0.70964,-0.02204 0.79834,-0.19832c0.08872,-0.17628 0.15524,-0.17628 0.19959,-0.11018c0.04265,0.06611 0.3753,0.46105 0.3753,0.46105s0.22346,0.17629 0.31217,0.22036c0.087,0.04407 -0.08871,0.24239 -0.26611,0.13221c-0.17741,-0.11018 -0.51006,-0.08645 -0.64312,-0.19662c-0.13305,-0.11019 -0.73181,-0.11019 -0.88705,-0.08815c-0.15353,0.02204 -0.42135,-0.06611 -0.51006,-0.06611c-0.087,0 -0.377,0.22036 -0.377,0.22036s-0.11088,-0.17798 -0.1757,-0.26612c-0.06653,-0.08814 -0.17741,0.08814 -0.26612,0.11017c-0.0887,0.02204 -0.35483,-0.17628 -0.62094,-0.08814c-0.26611,0.08814 -0.17741,0.17629 -0.55441,0.15425s-0.46399,-0.08814 -0.59705,-0.06611c-0.13476,0.02204 -0.13476,0.02204 -0.13476,0.02204s0.02217,0.08815 -0.13136,0.17629c-0.15524,0.08814 -0.26782,0.19832 -0.3787,0.06611c-0.10917,-0.13222 -0.17571,-0.13222 -0.24223,-0.15425c-0.06824,-0.02204 -0.2013,-0.13222 -0.48789,-0.06781c-0.28829,0.06781 -0.73181,-0.08645 -0.81881,-0.08645c-0.06824,0 -0.53394,-0.02542 -0.83759,-0.05593c3.59768,-3.88503 8.74089,-6.33944 14.46239,-6.33944c3.6301,0 7.02308,0.99838 9.94524,2.70867c-0.19958,0.12205 -0.54417,0.10171 -0.66188,0.03899c-0.13305,-0.07288 -0.26952,-0.13221 -0.81028,-0.1034c-0.54076,0.03052 -1.13441,0.2068 -1.015,0.38308c0.12282,0.17628 -0.24223,0.27968 -0.33606,0.19154c-0.09382,-0.08814 -0.52711,0.10171 -0.49981,0.27968c0.02728,0.17628 -0.06653,0.38139 -0.29854,0.33732c-0.22858,-0.04578 -0.39064,0.10169 -0.40428,0.24747c-0.01194,0.14747 -0.52712,0.24917 -0.56635,0.24917c-0.04095,0 -0.70283,-0.01356 -0.46059,0.16103c0.16547,0.11696 0.25588,0.04576 0.46059,0.08814c0.20299,0.04407 0.36505,0.36782 0.47252,0.41189c0.10577,0.04407 0.25588,0 0.32242,-0.08814c0.06822,-0.08814 0.16205,-0.39664 0.16205,-0.39664s0,0.29324 0.16547,0.35257c0.16205,0.05933 0.56465,-0.04407 0.67382,-0.02881c0.10918,0.01355 0.74547,0.10339 0.91776,0.18984c0.17741,0.08814 0.60729,0.14746 0.73011,0.33731c0.12112,0.19154 0.13647,0.8526 0.203,0.92549c0.06824,0.07289 0.29683,-0.23561 0.34971,-0.30849c0.05288,-0.07459 0.33776,-0.03052 0.43329,0.07118c0.09553,0.1034 0.31047,0.35258 0.29852,0.45597c-0.01705,0.10509 -0.05629,0.26443 -0.13647,0.20679c-0.08187,-0.05763 -0.21664,-0.04237 -0.16376,-0.16102c0.05459,-0.11696 0.08189,-0.36783 -0.02559,-0.36783c-0.10917,0 -0.20299,0 -0.20299,0s-0.20471,-0.05932 -0.33947,0.16103s-0.02559,0.44071 0.06823,0.44071s0.31388,0 0.31388,0.05763c0,0.05933 -0.232,0.23561 -0.21835,0.33901c0.01535,0.1034 0.18764,0.45427 0.24565,0.52885c0.05288,0.07289 0.33606,0.14577 0.41622,0.16272c0.08359,0.01356 -0.18935,0.02882 -0.1194,0.13052c0.06824,0.1034 0.174,0.35256 0.32241,0.41189c0.14841,0.05933 0.56806,0.32206 0.61923,0.44071c0.05459,0.11696 0.3787,-0.08814 0.44693,-0.10339c0.06824,-0.01357 0.0546,0.30849 0.24395,0.32375c0.18764,0.01355 0.25588,-0.03052 0.41793,-0.16273s0.12283,-0.30849 0.13477,-0.4407c0.01536,-0.13222 0,-0.23392 0.17741,-0.19154c0.17741,0.04407 0.26953,-0.03052 0.25588,-0.17629c-0.01364,-0.14746 -0.16205,-0.32376 0.11942,-0.36783c0.28488,-0.04407 0.43329,-0.2339 0.60899,-0.2339c0.17571,0 0.66359,0.07288 0.71476,0c0.05459,-0.0729 0.28488,-0.41191 0.43329,-0.42546c0.1143,-0.01187 0.38212,-0.0356 0.65677,-0.07119c2.69869,3.19514 4.36874,7.26153 4.55979,11.70422c-0.20129,0.26951 -0.02047,0.51698 0.03582,0.69157c0.00172,0.05086 0.00854,0.09832 0.00854,0.14917c0,0.23052 -0.02729,0.45596 -0.03582,0.68479c-0.00171,0.00339 -0.00171,0.00678 -0.00513,0.01017l0.00001,0l0.00001,-0.00001zm-16.57427,-7.33272c-0.10917,0.02203 -0.28829,-0.08814 -0.28829,-0.24239s-0.15524,0.28646 -0.06824,0.41867c0.09041,0.13221 -0.17741,0.28646 -0.26441,0.28646s-0.15524,-0.19662 -0.13306,-0.39494c0.02389,-0.19832 -0.13135,-0.3746 -0.37699,-0.35257c-0.24395,0.02373 -0.35482,0.22036 -0.44183,0.28646c-0.09041,0.06611 -0.09041,0.43901 -0.06823,0.52886s0.02217,0.39833 -0.19788,0.3746c-0.20129,-0.02204 -0.15694,-0.39494 -0.13477,-0.52886c0.02389,-0.13221 -0.06652,-0.46274 0.02389,-0.63733c0.09041,-0.17628 0.35311,-0.24239 0.53223,-0.26443s0.5527,0.11019 0.61923,0.08815c0.06824,-0.02374 0.3787,-0.02374 0.53223,0c0.15524,0.01864 0.3753,0.41528 0.26612,0.43732zm0.39747,0.06611c0.06824,0.04407 0.53053,-0.06611 0.62093,0.04407c0.08701,0.11017 -0.09211,0.13221 -0.31216,0.22035c-0.22006,0.08814 -0.2883,0.0661 -0.377,0.17628s-0.377,0.15255 -0.51006,0.28476c-0.13307,0.13392 -0.37018,0.21188 -0.41965,0.11019c-0.04947,-0.10171 0.02218,-0.06611 0.04265,-0.13222c0.02217,-0.06611 0.41794,-0.21866 0.41794,-0.21866s0.47082,-0.52885 0.53735,-0.48477zm-1.77241,-0.77125c-0.06482,0.02204 -0.31046,-0.04407 -0.51175,-0.04407c-0.19789,0 -0.15524,-0.13221 -0.24395,-0.10848c-0.087,0.02204 -0.28658,0.06611 -0.42135,0.13221c-0.13305,0.06611 -0.35482,0.05085 -0.35482,-0.0678c0,-0.17628 0.08871,-0.13221 0.377,-0.24239c0.28829,-0.11017 0.60047,-0.41868 0.73182,-0.28646c0.13306,0.13221 0.377,0.28646 0.53223,0.3085c0.15694,0.02373 -0.04435,0.28646 -0.10918,0.30849zm-2.26711,-6.83269c-0.13475,0.04407 -0.59193,0.23562 -0.54758,0.33731c0.01706,0.03899 0.13306,0.11696 0.32412,0.08814c0.19277,-0.0305 0.47082,-0.05932 0.60559,-0.07288c0.13306,-0.01526 0.16205,-0.23561 0.01535,-0.24918c-0.14841,-0.01524 -0.26612,-0.14746 -0.39747,-0.10339l0,0l-0.00001,0zm-1.63934,0.17629c-0.10406,0.04407 -0.41452,-0.0729 -0.57658,0.0305c-0.10406,0.06441 -0.04435,0.27799 0.11941,0.29155c0.16206,0.01525 0.44182,-0.1017 0.47082,-0.01356c0.0307,0.08814 0.13306,0.48479 0.39917,0.35256c0.26612,-0.13221 0.25076,-0.24916 0.32412,-0.26442c0.07335,-0.01526 -0.01365,-0.33731 -0.13305,-0.41189c-0.11772,-0.07288 -0.50153,-0.02881 -0.60389,0.01526l0,0zm-0.53394,-1.24755c0.029,0.07458 -0.01364,0.13221 0.19277,0.16102c0.20641,0.03052 0.29512,0.05933 0.41452,0.05933c0.11772,0 0.07165,-0.19154 -0.0307,-0.32206c-0.10406,-0.13221 -0.07336,-0.11695 -0.33947,-0.19154c-0.26611,-0.07288 -0.53223,-0.07288 -0.70964,-0.05932c-0.17741,0.01525 -0.37018,-0.02882 -0.41453,0.17629c-0.02217,0.10509 0.11941,0.18984 0.29682,0.18984s0.56124,-0.08645 0.59024,-0.01356l-0.00001,0zm0.38553,0.80683c0.07335,0.16103 0.07335,0.08645 0.28147,0.1034c0.2047,0.01526 0.36677,-0.20509 0.38212,-0.27799c0.01535,-0.07457 -0.10406,-0.22035 -0.38382,-0.19154c-0.28147,0.02883 -1.13782,-0.04407 -1.25553,0.05764c-0.11259,0.09831 0,0.39494 -0.04435,0.42546c-0.04435,0.02881 0.01535,0.16102 0.13135,0.13221c0.11771,-0.02883 0.17741,-0.30851 0.26783,-0.30851c0.0887,0.00171 0.54758,-0.10169 0.62093,0.05933l0,0zm-2.77887,-0.60174c0.08871,0.0729 0.31218,0.01357 0.29513,-0.05932c-0.01366,-0.07289 0.0904,-0.36782 -0.08701,-0.38138c-0.17741,-0.01357 -0.42646,0.16272 -0.69429,0.25087c-0.17229,0.05593 -0.13306,0.22035 -0.01535,0.22035s0.41452,-0.1034 0.50152,-0.03052l0,0zm1.25894,0.26444c-0.14841,0.07288 -0.19447,0.11695 -0.32582,0.08814c-0.13306,-0.02883 -0.13306,-0.26443 -0.37018,-0.22036c-0.2354,0.04407 -0.27976,0.17628 -0.35311,0.2356s-0.23712,0.1034 -0.29512,0.0729c-0.058,-0.02882 -0.39918,-0.21866 -0.39918,-0.21866s-0.70963,-0.03052 -0.73864,-0.11866c-0.029,-0.08814 -0.1467,-0.23391 -0.47252,-0.20509s-0.88705,0.22035 -0.97576,0.22035c-0.0887,0 0.10576,0.17628 -0.01535,0.17628c-0.1177,0 -0.26441,-0.01356 -0.30877,0.11695c-0.03071,0.08985 0.13306,0.08815 0.32241,0.08815c0.19106,0 0.50324,0 0.59194,-0.04407c0.08871,-0.04407 0.53223,-0.14746 0.51688,-0.01525c-0.01535,0.1339 0.17741,0.3373 0.27976,0.30849c0.10406,-0.02881 0.31218,-0.22035 0.41453,-0.14577c0.10406,0.07289 0.11941,0.24748 0.22177,0.29324c0.10406,0.04238 0.38553,0.04238 0.51858,0c0.13135,-0.04576 0.50153,-0.04576 0.66358,-0.01526c0.16206,0.03052 0.6363,0.11697 0.68065,0.03052c0.04435,-0.08984 0.17741,-0.1034 0.19105,-0.19154s0.08701,-0.36613 0.08701,-0.36613s-0.08701,-0.16273 -0.23371,-0.08983l0,-0.00001l0,0.00001zm7.48026,15.18243c-0.20301,0.03559 -0.15524,0.42715 0.0887,0.35595c0.24394,-0.07119 0.11259,-0.39324 -0.0887,-0.35595zm1.92763,-0.52547c-0.17741,-0.04407 -0.377,0 -0.51005,0.02204c-0.13306,0.02203 -0.51006,0.35257 -0.51006,0.35257s0.24393,0.04407 0.39747,0.04407c0.15694,0 0.24564,0.08645 0.377,0.15256c0.13306,0.0678 0.37699,-0.08815 0.46399,-0.08815c0.09042,0 0.20129,0.26443 0.22347,-0.02203c0.02389,-0.28647 -0.26441,-0.41699 -0.44182,-0.46106l0,0zm-6.17356,-14.27559c-0.07335,-0.17628 -0.44182,-0.23561 -0.51858,-0.05932c-0.06482,0.15425 0.59193,0.23561 0.51858,0.05932zm4.22546,13.19586c0.24393,-0.04407 0.10917,-0.24409 -0.09042,-0.22036c-0.20129,0.02204 -0.15524,0.26443 0.09042,0.22036zm2.94603,1.36111c-0.20299,0.03729 -0.15694,0.42884 0.08701,0.35766c0.24564,-0.07119 0.11258,-0.39325 -0.08701,-0.35766zm-2.68333,-0.65598c-0.15353,0.02204 -0.48618,-0.15255 -0.66358,-0.30849c-0.17741,-0.15425 -0.51006,-0.15425 -0.64312,-0.15425c-0.13135,0 -0.66529,0.15425 -0.66529,0.15425c-0.02218,0.22036 0.19959,0.15425 0.4657,0.15425s0.73182,-0.04407 0.81711,0.06611c0.09042,0.10848 0.48789,0.28476 0.60047,0.37459c0.10918,0.08815 0.464,0.11018 0.48618,0.02204s-0.24223,-0.33053 -0.39747,-0.30849l0,0l0,-0.00001zm-2.6424,-14.06201c-0.22176,-0.01526 -0.50324,-0.01526 -0.68065,0c-0.17741,0.01356 -0.31046,-0.11697 -0.44352,-0.19154c-0.13136,-0.07289 -0.42818,-0.3085 -0.60389,-0.33732c-0.17741,-0.02881 -0.1467,-0.02881 -0.51687,-0.11695c-0.18765,-0.04577 -0.50153,-0.1034 -0.50153,-0.14578c0,-0.04407 -0.0887,0.20511 0.07335,0.27968c0.16206,0.07289 0.42818,0.20511 0.61923,0.27799c0.19448,0.07288 0.56124,0.08814 0.68065,0.23561c0.1177,0.14578 0.51688,0.26443 0.51688,0.26443l0.47252,0.04407c0,0 0.32582,-0.07289 0.6653,-0.04407c0.33947,0.02882 0.841,0.07289 1.12417,0.05932c0.27805,-0.01356 0.3224,-0.1034 0.35482,-0.16103c0.02729,-0.05932 -0.51859,-0.17628 -0.65335,-0.16102c-0.12965,0.01016 -0.88705,0.01016 -1.10711,-0.00339l0,0zm0.82564,3.37651c-0.058,0.06611 0.26782,0.16102 0.32583,0.07288c0.05799,-0.08644 -0.17401,-0.23391 -0.32583,-0.07288zm0.99282,0.3068c0.1467,-0.05933 0.07335,-0.23561 -0.13477,-0.17628c-0.2354,0.0678 -0.01535,0.23561 0.13477,0.17628z" id="svg_32" stroke="null"/>
  <g id="svg_38" stroke="null" transform="rotate(-11.211623191833496 445.78070068359415,309.90316772460943) ">
   <rect fill="#fff" stroke-width="0" x="439.515092" y="309.644965" width="12.531145" height="0.481967" id="svg_21"/>
   <g id="svg_47" stroke="null">
    <rect fill="#d78d54" stroke-width="1.5" x="439.566731" y="305.531031" width="1.067213" height="3.92459" id="svg_33"/>
    <rect fill="#d78d54" stroke-width="1.5" x="440.94378" y="305.531031" width="1.067213" height="3.92459" id="svg_53"/>
    <rect fill="#d78d54" stroke-width="1.5" x="439.566731" y="310.350703" width="1.067213" height="3.92459" id="svg_54"/>
    <rect fill="#d78d54" stroke-width="1.5" x="440.94378" y="310.350703" width="1.067213" height="3.92459" id="svg_55"/>
    <rect fill="#d78d54" stroke-width="1.5" x="449.550336" y="305.531031" width="1.067213" height="3.92459" id="svg_56"/>
    <rect fill="#d78d54" stroke-width="1.5" x="450.927385" y="305.531031" width="1.067213" height="3.92459" id="svg_57"/>
    <rect fill="#d78d54" stroke-width="1.5" x="449.550336" y="310.350703" width="1.067213" height="3.92459" id="svg_58"/>
    <rect fill="#d78d54" stroke-width="1.5" x="450.927385" y="310.350703" width="1.067213" height="3.92459" id="svg_59"/>
   </g>
   <rect fill="#fff" stroke-width="0" x="430.83936" y="-589.620994" width="5.312499" height="2.155797" id="svg_60" transform="matrix(0,0.2754097922163048,-0.2754097922163048,0,283.6170390081153,191.57283228571822) "/>
   <rect fill="#fff" stroke-width="0" x="444.920009" y="311.899883" width="1.583606" height="0.412536" id="svg_63"/>
   <rect fill="#fff" stroke-width="0" x="430.83936" y="-597.433494" width="5.312499" height="2.155797" id="svg_65" transform="matrix(0,0.2754097922163048,-0.2754097922163048,0,281.4654000064254,189.42119328402833) "/>
  </g>
  <g transform="rotate(19.69085693359375 560.3306274414062,238.6932983398437) " id="svg_73" stroke="null">
   <path stroke="null" fill="#f6ce89" stroke-width="4" fill-opacity="null" d="m531.76817,238.835417l0,0c0,-15.77462 12.78787,-28.56249 28.5625,-28.56249l0,0c7.57524,0 14.84023,3.00925 20.19673,8.36576c5.35651,5.35651 8.36577,12.62149 8.36577,20.19674l0,0c0,15.77462 -12.78787,28.56249 -28.5625,28.56249l0,0c-15.77463,0 -28.5625,-12.78787 -28.5625,-28.56249l0,-0.00001z" id="svg_71" transform="rotate(129.970458984375 560.3306274414062,238.83538818359372) "/>
   <path fill="#f4bf69" stroke-width="4" d="m541.016517,213.277195l0,0c11.63934,11.11595 18.22797,13.26167 28.18865,13.01014c10.52972,-0.31904 17.59609,-4.03763 28.78681,-13.01014c0,15.77462 -12.75439,28.56249 -28.48773,28.56249l0,0c-15.73334,0 -28.48773,-12.78787 -28.48773,-28.56249z" id="svg_72" transform="rotate(-140.029541015625 569.5042114257812,227.55841064453122) "/>
  </g>
 </g>
</svg>
